<svg viewBox="0 0 250 425" fill="none" xmlns="http://www.w3.org/2000/svg">
<path d="m239.7,174.74l-2.18,4.76c.76-1.57,1.49-3.16,2.18-4.76Z" fill="#e23b32" />
<path d="m125.5,88c20.54,0,37.22,16.52,37.49,37h87.01C250,55.96,194.04,0,125,0S0,55.96,0,125h88.01c.27-20.48,16.94-37,37.49-37Z" fill="#e23b32" />
<path d="m10.3,174.74c.7,1.6,1.42,3.19,2.18,4.76l-2.18-4.76Z" fill="#e23b32" />
<path d="m125,250c-49.5,0-92.27-28.77-112.52-70.5l112.52,245.5,112.52-245.5c-20.25,41.73-63.02,70.5-112.52,70.5Z" fill="#e23b32" />
<path d="m125,250c49.5,0,92.27-28.77,112.52-70.5l2.18-4.76c6.62-15.24,10.3-32.06,10.3-49.74h-87.01c0,.17.01.33.01.5,0,20.71-16.79,37.5-37.5,37.5s-37.5-16.79-37.5-37.5c0-.17.01-.33.01-.5H0c0,17.68,3.68,34.5,10.3,49.74l2.18,4.76c20.25,41.73,63.02,70.5,112.52,70.5Z" fill="#e23b32" />
</svg>